<svg version="1.0" xmlns="http://www.w3.org/2000/svg"
 width="1408.000000pt" height="768.000000pt" viewBox="0 0 1408.000000 768.000000"
 preserveAspectRatio="xMidYMid meet">

<g transform="translate(0.000000,768.000000) scale(0.100000,-0.100000)"
fill="#000000" stroke="none">
<path d="M6680 6905 c-120 -15 -283 -46 -276 -52 3 -3 44 3 93 13 48 10 120
18 160 18 39 1 69 4 66 9 -2 4 0 7 6 7 5 0 13 -4 16 -10 9 -14 185 -13 185 1
0 7 -21 9 -60 6 -33 -2 -60 -1 -60 4 0 4 30 10 68 12 67 3 67 3 -13 4 -44 0
-127 -5 -185 -12z"/>
<path d="M7180 6910 c31 -6 32 -8 8 -9 -15 0 -29 -5 -32 -10 -3 -5 27 -9 67
-10 52 -1 68 2 57 9 -11 8 2 9 45 4 33 -3 69 -6 80 -5 11 0 64 -6 117 -15 54
-9 103 -14 110 -11 32 10 -324 58 -422 56 -55 -1 -59 -3 -30 -9z"/>
<path d="M6980 6889 c0 -4 29 -7 65 -6 36 1 65 5 65 9 0 4 -29 6 -65 6 -36 -1
-65 -5 -65 -9z"/>
<path d="M7658 6853 c6 -2 18 -2 25 0 6 3 1 5 -13 5 -14 0 -19 -2 -12 -5z"/>
<path d="M6358 6843 c6 -2 18 -2 25 0 6 3 1 5 -13 5 -14 0 -19 -2 -12 -5z"/>
<path d="M7750 6831 l55 -18 -65 5 c-36 2 -62 2 -59 -2 3 -3 43 -8 90 -10 46
-3 111 -12 143 -21 102 -27 71 -10 -41 23 -125 37 -211 53 -123 23z"/>
<path d="M6217 6811 c-54 -16 -101 -31 -105 -35 -8 -9 35 0 97 20 31 11 65 13
120 8 42 -4 73 -3 69 1 -7 7 -17 9 -68 14 -13 1 -13 2 0 11 26 17 -7 11 -113
-19z"/>
<path d="M7998 6762 c8 -5 13 -13 13 -18 -1 -5 11 -9 27 -10 15 0 38 -3 52 -7
14 -4 7 1 -15 12 -48 22 -96 37 -77 23z"/>
<path d="M5975 6729 c-180 -67 -422 -197 -609 -327 -131 -92 -386 -309 -386
-330 0 -3 21 14 48 39 40 39 52 46 85 44 41 -2 50 9 15 19 -22 6 -21 8 17 42
87 77 249 194 262 190 9 -4 11 -1 7 6 -5 7 -2 9 9 5 10 -4 14 -2 11 6 -5 15
77 68 91 58 14 -10 59 1 62 16 2 9 -4 10 -23 3 -64 -25 -29 6 57 50 34 17 66
27 80 24 21 -4 22 -3 4 5 -17 7 -4 16 80 56 124 58 205 91 244 100 17 4 33 11
36 16 9 14 -2 11 -90 -22z"/>
<path d="M6805 6698 c-22 -12 -95 -59 -252 -162 -57 -37 -107 -65 -112 -62
-11 7 -71 -25 -71 -37 0 -5 14 1 31 13 16 12 33 20 36 17 8 -9 -77 -58 -88
-52 -5 4 -8 2 -7 -4 2 -6 -114 -88 -256 -183 -143 -95 -268 -185 -278 -199
-32 -42 -38 -94 -38 -326 l0 -223 23 -4 c12 -3 76 -16 142 -28 l120 -24 6 -54
c8 -73 40 -137 96 -194 l47 -46 -36 -72 c-54 -107 -101 -252 -143 -438 -95
-419 -134 -479 -451 -690 -339 -226 -456 -339 -590 -569 l-48 -84 -13 49 c-7
27 -22 99 -33 159 -95 526 11 1093 294 1569 67 112 204 292 294 386 l77 80 65
-15 c36 -8 68 -14 73 -15 4 0 7 110 7 245 0 262 5 292 52 342 12 13 17 23 10
23 -16 0 -72 -72 -65 -84 3 -6 2 -7 -3 -3 -4 4 -9 17 -9 27 0 11 -4 19 -10 17
-10 -2 -11 -5 -13 -47 -2 -18 -15 -34 -47 -55 -40 -27 -56 -45 -39 -45 4 0 29
16 56 36 28 19 52 34 54 31 2 -2 -33 -28 -79 -59 -296 -199 -326 -216 -346
-211 -12 3 -21 1 -21 -6 0 -6 5 -11 12 -11 9 0 9 -3 0 -12 -18 -18 -15 -73 6
-91 9 -9 40 -21 67 -27 107 -22 101 -15 52 -68 -131 -140 -285 -360 -368 -527
-48 -95 -70 -131 -56 -92 4 9 2 17 -3 17 -5 0 -8 -15 -8 -32 1 -18 -19 -86
-45 -152 -43 -110 -92 -286 -116 -416 -31 -167 -42 -510 -20 -681 57 -468 248
-903 505 -1155 70 -68 205 -166 278 -200 19 -10 32 -22 29 -27 -3 -6 -1 -7 5
-3 6 3 39 -3 74 -15 152 -51 160 -51 868 -56 578 -4 662 -6 646 -19 -19 -13
-18 -14 10 -15 29 -1 29 -1 4 -9 -25 -8 -25 -8 -2 -9 27 -1 62 15 62 29 0 6
-12 11 -27 12 -16 1 222 5 527 8 527 6 559 7 631 27 42 12 109 37 148 55 39
19 71 34 71 34 0 -1 -9 -30 -20 -66 -11 -36 -20 -78 -20 -93 0 -69 62 -134
139 -144 31 -4 49 0 85 21 54 31 65 59 121 284 29 119 41 152 54 152 9 0 44
13 78 29 65 31 105 77 119 136 3 17 17 46 30 65 31 47 44 111 32 158 -13 53
-13 53 -4 96 6 25 5 56 -3 85 -10 40 -9 53 9 100 30 77 86 317 105 446 10 63
18 198 20 315 l4 205 110 450 c62 248 121 487 133 532 18 70 19 86 8 113 -32
77 -126 80 -164 6 -9 -17 -46 -134 -83 -261 -36 -126 -73 -254 -81 -282 -8
-29 -18 -53 -21 -53 -3 0 -21 46 -40 103 -113 340 -326 675 -597 938 -153 148
-354 295 -497 364 l-68 33 53 31 c105 62 304 193 331 219 32 30 35 71 8 96
-21 19 -68 32 -346 95 -331 74 -538 121 -755 171 -474 108 -485 110 -525 88z
m155 -108 c73 -19 65 -19 -52 -5 l-43 6 35 -21 c29 -17 31 -20 10 -16 -14 3
-33 6 -42 6 -12 0 -18 8 -18 25 0 30 9 31 110 5z m503 -117 c-7 -2 -19 -2 -25
0 -7 3 -2 5 12 5 14 0 19 -2 13 -5z m44 -9 c-3 -3 -12 -4 -19 -1 -8 3 -5 6 6
6 11 1 17 -2 13 -5z m247 -54 c34 -14 -3 -11 -64 5 l-55 15 49 -6 c27 -3 58
-9 70 -14z m266 -59 c19 -5 21 -8 10 -13 -9 -3 -29 0 -45 7 -22 10 -25 13 -10
13 11 0 31 -3 45 -7z m63 -18 c-7 -2 -19 -2 -25 0 -7 3 -2 5 12 5 14 0 19 -2
13 -5z m-130 -10 c-7 -2 -19 -2 -25 0 -7 3 -2 5 12 5 14 0 19 -2 13 -5z m174
1 c-3 -3 -12 -4 -19 -1 -8 3 -5 6 6 6 11 1 17 -2 13 -5z m-495 -336 c14 -12
98 -221 98 -243 0 -6 -8 -1 -17 10 l-16 20 8 -20 c4 -11 10 -28 12 -37 3 -10
9 -18 14 -18 5 0 6 8 3 18 -5 14 -4 15 5 2 16 -23 13 -30 -12 -30 -39 0 -56
21 -81 100 -14 41 -34 102 -45 134 -26 72 -26 85 -1 31 13 -28 19 -34 20 -20
1 17 3 16 16 -7 20 -38 24 -35 10 7 -7 19 -21 42 -32 50 -10 8 -14 15 -8 15 5
0 17 -6 26 -12z m405 -108 c341 -182 614 -438 838 -785 120 -187 234 -451 285
-667 l24 -97 -38 -128 c-21 -70 -69 -234 -107 -363 -37 -129 -99 -345 -138
-479 -39 -135 -71 -247 -71 -249 0 -2 -13 -1 -29 3 -82 18 -169 -44 -233 -167
-29 -56 -50 -84 -72 -95 -39 -20 -123 -20 -162 0 -67 35 -156 155 -228 308
-40 84 -95 308 -103 416 l-6 72 39 6 c357 55 427 91 641 333 94 106 131 185
159 339 25 138 30 381 10 484 -34 165 -118 293 -273 416 -162 128 -326 228
-566 344 -86 41 -131 69 -137 83 -4 12 -22 56 -40 100 -23 57 -28 82 -20 90
17 18 114 84 124 85 5 1 52 -22 103 -49z m-1606 -266 c48 -24 128 -102 166
-161 45 -71 89 -71 76 -1 -4 23 1 28 69 56 89 37 222 75 343 99 69 13 140 17
300 17 195 -1 217 -2 310 -27 68 -18 157 -55 280 -115 406 -200 639 -372 720
-532 20 -40 34 -74 31 -77 -4 -5 -14 11 -46 72 -54 105 -333 126 -510 37 -90
-45 -130 -94 -138 -170 -7 -82 53 -169 146 -208 48 -20 250 -74 280 -74 21 0
22 -4 22 -74 0 -41 -7 -108 -15 -150 -32 -171 -90 -230 -246 -255 -120 -19
-242 16 -330 96 l-40 36 21 22 c23 25 25 38 7 53 -35 29 -177 -62 -177 -113 0
-29 33 -42 61 -23 18 12 25 8 77 -42 95 -91 192 -130 325 -130 95 0 171 21
236 64 l48 33 32 -29 c17 -15 38 -28 46 -28 26 0 16 -17 -41 -70 -65 -59 -120
-89 -218 -119 -166 -51 -456 -71 -748 -52 -93 6 -175 8 -183 5 -18 -7 -20 -38
-2 -51 34 -28 240 -53 435 -53 l142 0 0 -71 c0 -49 13 -126 39 -238 78 -329
76 -317 75 -556 0 -203 -2 -227 -26 -315 -14 -53 -36 -122 -49 -155 l-24 -60
-308 -3 c-169 -1 -307 0 -307 3 0 3 8 20 17 38 28 53 23 161 -10 230 -52 105
-176 182 -343 212 -168 31 -204 44 -259 100 -57 56 -90 138 -102 245 -6 62
-23 81 -50 58 -12 -10 -14 -32 -11 -108 5 -120 37 -198 110 -265 61 -58 90
-70 257 -106 197 -41 300 -102 326 -188 7 -21 0 -18 -46 22 -61 54 -148 91
-245 107 -38 6 -81 13 -96 15 -23 4 -29 -1 -47 -39 -11 -24 -23 -66 -27 -93
l-6 -50 -49 -11 c-27 -7 -89 -17 -138 -23 -178 -24 -323 26 -463 159 -124 118
-185 264 -193 457 -2 44 -3 83 -4 88 -1 4 -10 7 -21 7 -26 0 -45 -39 -64 -132
-32 -153 -12 -353 46 -473 l19 -40 -20 25 c-11 14 -29 52 -40 85 -16 48 -19
52 -15 22 3 -25 2 -37 -5 -33 -6 4 -9 85 -8 212 l2 206 -27 -59 c-14 -32 -33
-74 -42 -93 -30 -70 -58 -177 -67 -265 -11 -108 -2 -255 16 -255 7 0 28 -7 46
-15 l34 -16 -35 7 c-19 3 -69 19 -111 35 -246 94 -474 346 -621 685 l-49 114
44 94 c88 186 216 345 382 477 72 57 112 85 295 205 130 85 244 196 295 287
51 93 80 182 122 377 41 193 88 343 143 457 l40 81 35 -9 c20 -6 50 -9 68 -7
30 3 32 6 37 50 6 49 21 72 77 123 l33 30 -15 50 c-53 179 -195 265 -324 195
-13 -7 -21 -7 -21 -1 0 18 64 84 95 98 37 16 111 11 156 -13z m3089 -491 c0
-5 -113 -464 -251 -1020 -154 -620 -256 -1013 -263 -1013 -7 0 -28 -8 -49 -19
-66 -33 -66 -17 3 221 107 374 321 1109 355 1223 18 61 65 224 106 363 47 163
78 252 86 252 7 0 13 -3 13 -7z m-824 -235 c4 -6 3 -8 -4 -4 -6 3 -26 -7 -45
-24 -36 -31 -64 -103 -54 -140 3 -11 1 -18 -4 -14 -13 8 -11 46 6 95 15 43 46
80 75 92 8 3 16 6 17 6 1 1 5 -4 9 -11z m-439 -24 c-3 -3 -12 -4 -19 -1 -8 3
-5 6 6 6 11 1 17 -2 13 -5z m38 -14 c3 -6 -1 -7 -9 -4 -18 7 -21 14 -7 14 6 0
13 -4 16 -10z m85 -99 c17 -60 10 -69 -9 -13 -10 29 -29 65 -42 80 -22 25 -22
25 9 -2 17 -17 37 -46 42 -65z m-209 2 c13 -16 12 -17 -3 -4 -10 7 -18 15 -18
17 0 8 8 3 21 -13z m89 -23 c20 -6 21 -8 5 -8 -11 0 -33 4 -50 8 -27 7 -27 8
-5 8 14 0 36 -4 50 -8z m75 -41 c14 -22 -3 -18 -26 7 -23 25 -23 26 -2 15 12
-6 25 -16 28 -22z m432 -121 c-10 -227 -68 -447 -128 -478 -35 -19 -100 -8
-120 20 -17 24 -17 29 -2 95 10 44 16 119 17 200 l1 130 58 29 c53 27 157 118
157 137 0 5 5 9 11 9 9 0 10 -38 6 -142z m428 -1129 c-22 -102 -77 -310 -82
-305 -2 2 17 90 43 195 46 189 69 253 39 110z m-354 -431 c34 -19 77 -65 67
-72 -8 -7 -68 16 -68 25 0 6 8 6 21 -2 17 -9 20 -8 17 3 -5 14 -99 32 -108 20
-3 -4 -18 -14 -35 -22 -16 -9 -40 -31 -52 -50 -13 -19 -49 -61 -79 -93 l-57
-57 7 -52 c8 -59 59 -187 82 -205 13 -9 13 -18 5 -50 -12 -43 -29 -62 -78 -87
-48 -24 -40 -12 12 18 29 17 45 34 45 46 0 11 -5 20 -11 20 -5 0 -7 -4 -4 -10
3 -5 1 -10 -6 -10 -6 0 -9 8 -6 20 3 11 1 23 -4 26 -5 3 -9 0 -9 -7 0 -8 -4
-8 -15 1 -8 7 -25 10 -40 6 -14 -4 -25 -2 -25 4 0 5 5 10 12 10 6 0 9 2 6 5
-3 3 -38 -2 -79 -12 -63 -14 -84 -14 -143 -4 -39 6 -94 24 -122 40 -46 25 -54
26 -58 12 -3 -9 -2 22 1 69 3 47 6 142 6 211 l-1 126 52 -61 c68 -80 153 -126
233 -126 120 0 187 43 237 154 55 119 114 151 197 104z m261 -15 c10 -9 17
-26 17 -37 -1 -17 -2 -18 -6 -3 -5 19 -23 24 -23 6 0 -8 -4 -8 -12 -1 -7 5
-22 12 -33 15 -11 2 -8 4 8 2 15 -1 27 3 27 8 0 5 -20 7 -45 5 -39 -3 -43 -1
-28 9 24 18 73 16 95 -4z m-285 -29 c-3 -3 -12 -4 -19 -1 -8 3 -5 6 6 6 11 1
17 -2 13 -5z m-2890 -101 c-2 -21 -4 -6 -4 32 0 39 2 55 4 38 2 -18 2 -50 0
-70z m3116 -30 c-13 -2 -33 -2 -45 0 -13 2 -3 4 22 4 25 0 35 -2 23 -4z
m-3091 -155 c21 -78 38 -101 38 -52 0 14 -4 23 -10 19 -5 -3 -10 -1 -10 4 0
18 19 12 30 -8 5 -11 10 -29 10 -41 0 -12 4 -19 9 -16 5 4 7 -4 3 -16 l-5 -22
-10 22 c-6 12 -14 22 -18 22 -12 0 8 -60 36 -104 l26 -41 -25 29 c-53 63 -107
214 -105 291 1 19 3 23 5 10 3 -11 14 -55 26 -97z m2881 80 c3 -22 -1 -39 -12
-52 -10 -11 -16 -36 -16 -66 0 -42 5 -54 35 -85 l34 -35 -54 -218 c-60 -238
-76 -270 -128 -258 -39 10 -65 44 -59 81 4 29 54 208 136 491 23 77 41 148 41
157 0 30 18 18 23 -15z m280 -43 c-3 -9 -8 -14 -10 -11 -3 3 -2 9 2 15 9 16
15 13 8 -4z m-3131 -27 c-7 -7 -12 -8 -12 -2 0 14 12 26 19 19 2 -3 -1 -11 -7
-17z m-132 -164 c-1 -4 4 -10 12 -15 10 -6 10 -11 0 -21 -9 -9 -12 -8 -12 6 0
9 -4 15 -9 12 -4 -3 -6 7 -3 22 3 15 7 21 9 15 3 -7 4 -15 3 -19z m2256 -69
c-3 -31 -1 -57 4 -60 7 -4 7 -13 0 -24 -5 -10 -7 -28 -5 -40 2 -11 0 -21 -6
-21 -9 0 -13 14 -10 39 5 30 -17 -2 -29 -44 -7 -25 -17 -48 -23 -52 -7 -4 -8
0 -2 13 15 37 65 209 65 227 0 9 3 17 6 17 3 0 3 -25 0 -55z m-1945 -95 c6 0
7 5 4 10 -13 21 22 9 43 -15 12 -14 17 -25 10 -25 -22 0 5 -17 62 -39 30 -12
42 -19 25 -16 -54 10 -153 65 -202 111 l-48 45 48 -36 c27 -19 53 -35 58 -35z
m1096 -2 c-3 -7 -5 -2 -5 12 0 14 2 19 5 13 2 -7 2 -19 0 -25z m-467 -7 c0
-21 -244 -99 -272 -88 -7 3 -4 6 7 6 11 1 38 8 60 16 l40 14 -39 1 c-63 0 -36
9 43 14 81 6 109 12 129 32 15 16 32 18 32 5z m-739 -49 c14 -12 34 -29 45
-37 17 -13 13 -14 -41 -14 l-60 1 35 13 c35 13 34 16 -5 19 -13 0 -20 8 -20
21 -1 11 -5 27 -10 35 -8 13 -7 13 10 0 11 -8 31 -25 46 -38z m2464 38 c-3 -5
-12 -10 -18 -10 -7 0 -6 4 3 10 19 12 23 12 15 0z m-90 -10 c-3 -5 3 -10 15
-10 12 0 18 4 15 10 -3 6 1 7 10 3 23 -8 6 -18 -74 -43 -66 -21 -130 -28 -83
-10 27 12 29 24 2 17 -11 -3 -18 -1 -15 3 3 5 -3 11 -12 13 -10 3 -2 6 17 7
54 2 114 10 119 16 8 8 12 4 6 -6z m-2110 -20 c3 -6 -1 -7 -9 -4 -18 7 -21 14
-7 14 6 0 13 -4 16 -10z m650 -44 c19 -8 35 -16 35 -18 0 -2 -43 -3 -95 -3
-52 0 -95 1 -95 3 0 2 15 9 33 17 42 18 79 19 122 1z m-1017 -3 c-16 -2 -40
-2 -55 0 -16 2 -3 4 27 4 30 0 43 -2 28 -4z m440 0 c-10 -2 -26 -2 -35 0 -10
3 -2 5 17 5 19 0 27 -2 18 -5z"/>
<path d="M7623 5900 c15 -57 42 -122 45 -107 4 18 4 18 19 0 13 -17 14 -16 8
12 -8 44 -26 85 -36 85 -5 0 -4 -12 1 -26 14 -36 -7 -21 -25 19 -9 18 -14 25
-12 17z"/>
<path d="M7023 5430 c-60 -12 -114 -43 -156 -89 -38 -43 -46 -68 -25 -89 19
-19 35 -14 75 22 52 46 90 64 154 72 30 4 60 11 67 17 19 15 14 44 -10 61 -24
17 -41 18 -105 6z"/>
<path d="M7001 5197 c-88 -34 -154 -124 -149 -205 4 -64 25 -61 47 6 28 82 95
142 159 142 l30 0 -38 -38 c-80 -79 -59 -206 42 -258 34 -18 83 -13 133 14 16
9 38 15 47 13 13 -1 18 9 23 43 16 105 -30 214 -110 261 -54 31 -134 41 -184
22z m200 -107 c28 -16 25 -65 -5 -85 -48 -32 -100 32 -61 75 20 22 37 25 66
10z"/>
<path d="M6391 4543 c-44 -66 -71 -161 -71 -247 0 -64 14 -146 25 -146 3 0 23
20 46 45 23 25 45 45 50 45 5 0 9 -22 9 -50 0 -55 30 -145 68 -202 24 -37 89
-94 98 -86 7 8 10 268 2 268 -8 0 -48 -104 -48 -125 0 -34 -18 -11 -41 53 -19
54 -24 86 -24 165 1 53 -3 97 -8 97 -4 0 -30 -20 -56 -45 -26 -25 -51 -45 -55
-45 -23 0 9 197 50 304 13 33 -16 14 -45 -31z m199 -588 c-7 -9 -15 -13 -17
-11 -6 6 20 36 26 30 2 -2 -2 -10 -9 -19z m20 -27 c0 -18 -2 -20 -9 -8 -6 8
-7 18 -5 22 9 14 14 9 14 -14z"/>
<path d="M6751 4034 c0 -11 3 -14 6 -6 3 7 2 16 -1 19 -3 4 -6 -2 -5 -13z"/>
<path d="M6880 3970 c0 -5 6 -10 13 -10 6 0 24 -7 40 -14 15 -8 27 -11 27 -5
0 5 -2 9 -4 9 -2 0 -20 7 -40 15 -21 9 -36 11 -36 5z"/>
<path d="M7972 3958 c-6 -6 -33 -24 -59 -39 -56 -33 -53 -37 9 -10 55 24 84
46 71 54 -5 3 -15 1 -21 -5z"/>
<path d="M6978 3933 c6 -2 10 -8 8 -12 -3 -4 4 -7 15 -7 19 0 19 1 3 13 -10 7
-23 13 -28 12 -6 0 -5 -3 2 -6z"/>
<path d="M6800 3926 c0 -17 32 -66 43 -65 9 0 9 2 0 6 -7 2 -13 10 -13 16 -1
13 -30 56 -30 43z"/>
<path d="M7824 3884 c-7 -3 -45 -11 -85 -19 -71 -13 -72 -14 -21 -12 28 1 52
-1 52 -5 0 -5 7 -8 15 -8 8 0 14 5 13 11 -2 6 13 17 32 24 19 8 28 13 20 13
-8 0 -20 -2 -26 -4z"/>
<path d="M7258 3863 c6 -2 18 -2 25 0 6 3 1 5 -13 5 -14 0 -19 -2 -12 -5z"/>
<path d="M7345 3849 c22 -4 67 -7 100 -7 l60 1 -55 7 c-30 5 -75 8 -100 8
l-45 0 40 -9z"/>
<path d="M6859 3822 c6 -12 16 -24 22 -28 8 -4 8 -1 0 14 -6 12 -16 24 -22 28
-8 4 -8 1 0 -14z"/>
<path d="M7013 3660 c14 -11 28 -20 32 -20 4 0 -4 9 -18 20 -14 11 -28 20 -32
20 -4 0 4 -9 18 -20z"/>
<path d="M5851 3658 c-71 -26 -161 -142 -161 -205 0 -35 11 -28 50 29 19 29
61 80 93 114 58 63 63 80 18 62z"/>
<path d="M5489 3498 c-120 -62 -214 -157 -257 -260 -48 -114 -42 -175 8 -82
41 79 172 235 185 222 3 -2 0 -20 -5 -39 -13 -43 -13 -116 -1 -104 5 6 29 51
55 100 25 50 64 114 86 143 22 29 40 55 40 57 0 13 -35 1 -111 -37z"/>
<path d="M5435 3116 c-13 -13 -33 -43 -45 -66 -24 -47 -39 -153 -23 -163 5 -3
20 20 33 51 13 31 40 87 62 124 21 36 38 69 38 72 0 15 -44 3 -65 -18z"/>
<path d="M8709 2973 c-13 -15 -12 -15 11 -3 34 17 36 20 18 20 -9 0 -22 -7
-29 -17z"/>
<path d="M8090 2384 c0 -8 5 -12 10 -9 6 4 8 11 5 16 -9 14 -15 11 -15 -7z"/>
<path d="M6183 2355 c0 -8 4 -15 9 -15 4 0 8 4 8 9 0 6 -4 12 -8 15 -5 3 -9
-1 -9 -9z"/>
<path d="M6013 2307 c0 -8 6 -14 14 -14 9 0 10 4 2 14 -6 7 -12 13 -14 13 -1
0 -2 -6 -2 -13z"/>
<path d="M8195 6685 l50 -24 -37 0 c-52 -1 -48 -21 5 -22 53 -2 76 -4 107 -12
14 -4 -15 13 -65 38 -49 24 -94 44 -100 44 -5 0 13 -11 40 -24z"/>
<path d="M7200 6686 c0 -2 7 -7 16 -10 8 -3 12 -2 9 4 -6 10 -25 14 -25 6z"/>
<path d="M5870 6649 c0 -5 9 -9 20 -9 11 0 20 4 20 8 0 4 -9 8 -20 9 -11 1
-20 -2 -20 -8z"/>
<path d="M8370 6605 c0 -2 27 -18 60 -35 33 -17 60 -28 60 -25 0 2 -27 18 -60
35 -33 17 -60 28 -60 25z"/>
<path d="M8520 6521 c14 -12 46 -33 73 -48 31 -17 47 -33 47 -46 0 -13 5 -17
15 -13 8 3 21 -1 29 -9 8 -8 19 -15 24 -15 5 0 28 -14 50 -30 23 -17 42 -28
42 -25 0 7 -147 113 -218 156 -84 52 -93 56 -62 30z"/>
<path d="M6448 6493 c7 -3 16 -2 19 1 4 3 -2 6 -13 5 -11 0 -14 -3 -6 -6z"/>
<path d="M8498 6493 c6 -2 18 -2 25 0 6 3 1 5 -13 5 -14 0 -19 -2 -12 -5z"/>
<path d="M5325 6330 c3 -5 16 -10 28 -9 21 0 21 1 2 9 -28 12 -37 12 -30 0z"/>
<path d="M8476 6313 c-6 -14 -5 -15 5 -6 7 7 10 15 7 18 -3 3 -9 -2 -12 -12z"/>
<path d="M8908 6242 c31 -29 49 -53 43 -57 -6 -3 -11 -11 -11 -16 0 -6 5 -7
10 -4 6 3 10 1 10 -4 0 -6 5 -11 11 -11 6 0 8 7 5 15 -4 10 7 6 28 -10 25 -19
33 -31 29 -48 -4 -18 -3 -19 6 -7 10 12 30 -4 121 -98 61 -63 110 -118 110
-122 0 -5 -6 -10 -12 -13 -7 -2 -9 -8 -5 -13 4 -5 12 -2 17 6 7 12 16 6 42
-25 41 -48 87 -97 72 -76 -78 112 -329 374 -454 473 -73 58 -74 59 -22 10z"/>
<path d="M5229 6260 l-24 -19 33 12 c17 6 32 15 32 19 0 14 -17 9 -41 -12z"/>
<path d="M5159 6203 c-13 -16 -12 -17 4 -4 16 13 21 21 13 21 -2 0 -10 -8 -17
-17z"/>
<path d="M8170 6060 c-9 -6 -10 -10 -3 -10 6 0 15 5 18 10 8 12 4 12 -15 0z"/>
<path d="M4858 5952 c-103 -114 -117 -131 -194 -232 -116 -151 -284 -428 -323
-532 -15 -41 -5 -34 16 10 l18 37 5 -30 c3 -16 8 -25 12 -20 10 17 13 59 4 73
-6 9 -3 12 9 10 10 -2 20 4 22 12 4 12 3 12 -5 1 -6 -8 -12 -9 -16 -3 -3 6 1
18 10 26 8 9 13 16 9 16 -3 0 2 14 12 30 10 17 22 29 28 26 5 -2 10 9 11 24 2
41 55 122 71 108 10 -8 13 -6 13 6 0 10 -4 14 -10 11 -18 -11 -11 3 31 62 23
32 38 48 34 36 -5 -18 -3 -22 9 -17 12 4 13 11 6 24 -7 14 2 33 44 89 30 40
81 102 113 138 32 36 61 70 64 75 3 5 14 6 23 2 11 -4 22 -1 27 7 12 19 11 32
-1 24 -17 -10 -11 3 11 29 13 15 27 22 37 19 10 -4 13 -2 8 6 -4 6 -2 18 4 26
7 8 9 15 4 14 -5 0 -53 -48 -106 -107z m27 -2 c3 -5 1 -10 -4 -10 -6 0 -11 5
-11 10 0 6 2 10 4 10 3 0 8 -4 11 -10z"/>
<path d="M5575 5970 c-3 -5 -1 -10 4 -10 6 0 11 5 11 10 0 6 -2 10 -4 10 -3 0
-8 -4 -11 -10z"/>
<path d="M9280 5830 c0 -5 5 -10 10 -10 6 0 10 5 10 10 0 6 -4 10 -10 10 -5 0
-10 -4 -10 -10z"/>
<path d="M5376 5793 c-2 -5 -30 -21 -61 -38 -31 -16 -52 -31 -46 -33 6 -2 31
9 55 25 24 15 52 33 62 40 11 6 14 12 7 12 -6 1 -14 -2 -17 -6z"/>
<path d="M9410 5723 c0 -5 4 -13 9 -18 28 -30 48 -82 40 -105 -9 -24 -8 -24 6
-6 15 20 15 20 29 0 9 -11 12 -30 9 -48 -4 -20 -3 -27 5 -22 6 4 8 14 5 23 -4
11 -3 14 5 9 7 -4 10 -17 6 -30 -3 -14 2 -31 16 -47 l21 -24 -15 38 c-8 20
-13 37 -11 37 2 0 17 -22 34 -50 17 -27 33 -50 37 -50 7 0 -24 51 -100 165
-75 112 -96 140 -96 128z"/>
<path d="M4595 5580 c-3 -5 -2 -18 4 -27 7 -14 9 -12 8 10 -2 30 -3 31 -12 17z"/>
<path d="M9635 5370 c14 -27 28 -50 30 -50 3 0 -6 23 -20 50 -14 28 -28 50
-30 50 -3 0 6 -22 20 -50z"/>
<path d="M4450 5315 c0 -14 2 -25 4 -25 2 0 6 11 8 25 3 14 1 25 -3 25 -5 0
-9 -11 -9 -25z"/>
<path d="M9676 5295 c4 -11 8 -36 8 -57 1 -20 4 -40 9 -44 4 -4 7 2 7 14 0 11
4 22 10 24 5 2 -2 21 -16 43 -14 22 -22 31 -18 20z"/>
<path d="M9720 5214 c0 -6 7 -19 16 -30 14 -18 14 -18 3 6 -14 31 -19 36 -19
24z"/>
<path d="M9608 5163 c7 -3 16 -2 19 1 4 3 -2 6 -13 5 -11 0 -14 -3 -6 -6z"/>
<path d="M9750 5155 c0 -5 5 -17 10 -25 5 -8 10 -10 10 -5 0 6 -5 17 -10 25
-5 8 -10 11 -10 5z"/>
<path d="M4282 5058 c-94 -214 -180 -520 -217 -768 -17 -115 -39 -445 -33
-500 2 -19 7 41 12 133 4 93 10 166 13 163 3 -2 5 -45 5 -95 0 -50 4 -91 9
-91 4 0 7 93 6 208 0 179 2 222 22 322 26 128 44 175 35 93 -3 -35 -2 -53 5
-53 7 0 10 25 9 70 -2 39 -1 70 2 70 3 0 6 17 7 39 1 21 16 78 32 127 17 50
29 76 28 59 -1 -16 3 -31 8 -32 6 -2 9 19 8 46 -2 49 36 175 59 196 8 7 9 5 5
-7 -4 -10 -2 -18 4 -18 6 0 10 10 9 23 -3 34 -1 49 8 44 4 -3 7 10 8 29 0 19
0 34 -2 34 -1 0 -20 -42 -42 -92z m-215 -930 c-2 -13 -4 -5 -4 17 -1 22 1 32
4 23 2 -10 2 -28 0 -40z"/>
<path d="M9771 5105 c0 -5 6 -21 14 -35 8 -14 14 -20 14 -15 0 6 -6 21 -14 35
-8 14 -14 21 -14 15z"/>
<path d="M9810 5015 c0 -6 9 -34 19 -63 11 -29 18 -72 17 -95 -3 -49 3 -79 14
-72 5 3 6 22 3 43 -3 20 -3 35 0 32 8 -8 55 -160 63 -205 4 -22 10 -47 14 -55
13 -25 49 -208 64 -325 23 -179 28 -231 36 -405 l9 -165 -5 195 c-6 324 -53
610 -144 886 -41 125 -89 246 -90 229z"/>
<path d="M4290 4991 c0 -25 6 -27 13 -6 4 8 2 17 -3 20 -6 4 -10 -3 -10 -14z"/>
<path d="M9337 4983 c-4 -3 -7 -11 -7 -17 0 -6 5 -5 12 2 6 6 9 14 7 17 -3 3
-9 2 -12 -2z"/>
<path d="M9120 4899 c0 -5 5 -7 10 -4 6 3 10 8 10 11 0 2 -4 4 -10 4 -5 0 -10
-5 -10 -11z"/>
<path d="M9536 4763 c-6 -14 -5 -15 5 -6 7 7 10 15 7 18 -3 3 -9 -2 -12 -12z"/>
<path d="M9924 4565 c3 -27 5 -56 5 -64 1 -8 4 -11 8 -7 10 9 4 87 -8 106 -6
10 -8 -2 -5 -35z"/>
<path d="M4787 4429 c4 -13 8 -18 11 -10 2 7 -1 18 -6 23 -8 8 -9 4 -5 -13z"/>
<path d="M10000 3909 c0 -102 4 -168 9 -159 10 18 8 316 -2 326 -4 4 -7 -71
-7 -167z"/>
<path d="M4069 3763 c0 -43 -2 -89 -3 -103 -2 -14 0 -45 4 -70 5 -31 8 0 9
103 0 81 -1 147 -4 147 -3 0 -5 -35 -6 -77z"/>
<path d="M10000 3654 c0 -43 3 -74 7 -70 10 10 12 135 2 142 -5 3 -9 -29 -9
-72z"/>
<path d="M4046 3585 c4 -102 43 -380 52 -371 2 3 0 40 -7 83 -11 84 -39 296
-45 353 -2 19 -2 -10 0 -65z"/>
<path d="M10028 3626 c-3 -35 -8 -68 -12 -74 -3 -6 -8 -61 -10 -124 l-3 -113
13 75 c14 82 30 300 22 300 -3 0 -8 -29 -10 -64z"/>
<path d="M9992 3285 c0 -16 2 -22 5 -12 2 9 2 23 0 30 -3 6 -5 -1 -5 -18z"/>
<path d="M9966 3170 c-9 -44 -22 -80 -28 -80 -6 0 -7 8 -3 18 5 13 4 14 -6 5
-9 -9 -10 -19 -2 -35 11 -25 -16 -151 -55 -251 -11 -29 -33 -87 -48 -129 -22
-60 -31 -75 -41 -66 -10 8 -13 1 -13 -36 0 -25 -4 -46 -10 -46 -5 0 -7 7 -4
15 4 8 1 15 -5 15 -14 0 -14 -23 -1 -36 6 -6 -10 -48 -47 -119 -64 -125 -97
-178 -106 -169 -4 4 -9 -1 -13 -10 -3 -9 -11 -13 -17 -9 -6 3 -7 1 -3 -6 4 -6
12 -9 17 -6 14 9 11 -13 -7 -40 -9 -14 -20 -22 -25 -19 -5 3 -6 -3 -2 -13 6
-15 4 -16 -8 -6 -12 9 -14 6 -14 -18 0 -16 1 -29 3 -29 8 0 99 153 160 270 86
165 146 309 216 523 36 107 92 344 84 353 -3 2 -12 -32 -22 -76z"/>
<path d="M4102 3180 c0 -14 2 -19 5 -12 2 6 2 18 0 25 -3 6 -5 1 -5 -13z"/>
<path d="M4137 3194 c-8 -8 3 -96 14 -108 4 -5 6 17 5 48 -3 56 -7 71 -19 60z"/>
<path d="M4110 3147 c-1 -22 55 -218 99 -348 140 -412 389 -822 691 -1142 86
-91 296 -274 390 -341 8 -5 3 3 -12 19 -21 24 -25 34 -16 49 14 26 -10 48 -55
49 -20 0 -34 4 -31 8 2 4 -4 5 -13 3 -10 -2 -31 8 -47 22 -23 20 -26 28 -15
34 7 5 10 12 6 17 -5 4 -12 1 -17 -6 -6 -11 -22 -1 -69 44 -46 43 -58 61 -49
68 9 6 8 7 -4 4 -18 -6 -101 76 -224 223 -103 124 -120 150 -103 160 7 5 10
12 6 17 -5 4 -12 2 -16 -5 -6 -9 -15 -4 -33 20 -39 52 -53 81 -39 86 6 2 8 8
5 14 -4 7 -9 6 -14 -2 -10 -16 -75 94 -179 301 -84 169 -168 381 -145 366 5
-3 10 13 12 34 1 22 -2 39 -8 39 -5 0 -10 -17 -11 -37 0 -31 -6 -19 -34 67
-19 58 -34 114 -34 125 -1 20 -40 128 -41 112z m1118 -1737 c-2 -18 4 -23 12
-10 7 12 9 10 7 -8 -2 -27 -1 -27 -31 1 -21 20 -22 23 -6 23 10 0 18 -3 18 -6z"/>
<path d="M9220 2900 c-1 -3 -3 -18 -6 -35 -3 -28 -3 -29 7 -6 5 13 8 29 5 35
-2 6 -5 9 -6 6z"/>
<path d="M9843 2845 c1 -21 4 -30 9 -22 11 17 10 57 -1 57 -5 0 -9 -16 -8 -35z"/>
<path d="M4945 2860 c-3 -5 -1 -10 4 -10 6 0 11 5 11 10 0 6 -2 10 -4 10 -3 0
-8 -4 -11 -10z"/>
<path d="M4971 2824 c0 -11 3 -14 6 -6 3 7 2 16 -1 19 -3 4 -6 -2 -5 -13z"/>
<path d="M9232 2810 c0 -14 2 -19 5 -12 2 6 2 18 0 25 -3 6 -5 1 -5 -13z"/>
<path d="M4288 2669 c5 -34 17 -45 26 -24 3 8 1 15 -4 15 -5 0 -7 6 -4 14 3 7
-1 16 -9 19 -10 4 -12 -3 -9 -24z"/>
<path d="M5182 2510 c2 -8 13 -24 26 -36 15 -14 21 -27 16 -40 -4 -13 -3 -15
3 -6 5 7 17 10 26 6 26 -9 21 -2 -29 46 -25 25 -44 38 -42 30z"/>
<path d="M4383 2472 c-8 -5 -8 -12 2 -25 12 -16 13 -16 19 -1 8 21 -5 36 -21
26z"/>
<path d="M9681 2464 c0 -11 3 -14 6 -6 3 7 2 16 -1 19 -3 4 -6 -2 -5 -13z"/>
<path d="M5270 2413 c8 -4 22 -14 31 -25 9 -10 20 -18 24 -18 5 0 -2 11 -15
25 -13 14 -31 25 -39 24 -14 0 -14 -1 -1 -6z"/>
<path d="M5340 2362 c0 -4 10 -13 23 -21 22 -14 22 -14 3 8 -20 22 -26 25 -26
13z"/>
<path d="M4456 2333 c-4 -9 -2 -21 4 -27 7 -7 10 -2 10 17 0 31 -5 34 -14 10z"/>
<path d="M9543 2211 c0 -11 5 -18 9 -15 4 3 5 11 1 19 -7 21 -12 19 -10 -4z"/>
<path d="M5586 2193 c-6 -14 -5 -15 5 -6 7 7 10 15 7 18 -3 3 -9 -2 -12 -12z"/>
<path d="M8891 2184 c0 -11 3 -14 6 -6 3 7 2 16 -1 19 -3 4 -6 -2 -5 -13z"/>
<path d="M5658 2183 c7 -3 16 -2 19 1 4 3 -2 6 -13 5 -11 0 -14 -3 -6 -6z"/>
<path d="M6608 2133 c7 -3 16 -2 19 1 4 3 -2 6 -13 5 -11 0 -14 -3 -6 -6z"/>
<path d="M6840 2125 l-25 -13 28 -7 c15 -4 31 -5 34 -1 4 3 -4 6 -17 6 -23 0
-23 0 -4 15 24 18 17 19 -16 0z"/>
<path d="M6948 2133 c6 -2 18 -2 25 0 6 3 1 5 -13 5 -14 0 -19 -2 -12 -5z"/>
<path d="M7413 2133 c32 -2 81 -2 110 0 29 2 3 3 -58 3 -60 0 -84 -1 -52 -3z"/>
<path d="M7603 2133 c15 -2 39 -2 55 0 15 2 2 4 -28 4 -30 0 -43 -2 -27 -4z"/>
<path d="M6705 2121 c-35 -6 -37 -8 -18 -14 13 -5 28 -5 34 -1 6 3 14 2 18 -4
4 -7 14 -6 31 4 l25 14 -29 -6 c-21 -5 -27 -4 -22 5 4 6 6 10 4 10 -2 -1 -21
-5 -43 -8z"/>
<path d="M7033 2122 c-18 -2 -33 -8 -33 -13 0 -6 4 -7 10 -4 5 3 32 6 58 7 27
0 55 3 62 8 13 8 -38 9 -97 2z"/>
<path d="M7878 2119 c-7 -4 7 -6 31 -4 23 2 45 6 49 10 9 8 -66 3 -80 -6z"/>
<path d="M6508 2113 c7 -3 16 -2 19 1 4 3 -2 6 -13 5 -11 0 -14 -3 -6 -6z"/>
<path d="M8517 2113 c-8 -14 -1 -53 11 -65 8 -8 10 -2 5 28 -7 44 -9 49 -16
37z"/>
<path d="M9455 2005 c-57 -82 -77 -99 -89 -72 -3 6 -4 1 -2 -13 5 -26 3 -31
-56 -101 -20 -24 -46 -55 -57 -69 -17 -21 -20 -22 -21 -7 0 11 -5 15 -11 11
-6 -3 -9 -14 -6 -24 3 -12 -8 -30 -29 -51 -19 -18 -34 -27 -34 -20 0 7 -5 9
-10 6 -6 -4 -10 -12 -9 -18 3 -24 -1 -37 -12 -37 -6 0 -9 6 -6 14 3 8 -1 17
-8 20 -11 4 -12 0 -5 -19 5 -14 6 -25 2 -26 -4 -1 -16 -2 -26 -3 -25 -1 -32
-22 -10 -30 20 -8 52 20 163 145 142 160 299 364 288 375 -2 2 -30 -34 -62
-81z m-365 -425 c0 -5 -4 -10 -10 -10 -5 0 -10 5 -10 10 0 6 5 10 10 10 6 0
10 -4 10 -10z"/>
<path d="M4610 2050 c0 -5 5 -10 10 -10 6 0 10 5 10 10 0 6 -4 10 -10 10 -5 0
-10 -4 -10 -10z"/>
<path d="M4706 1968 c3 -5 10 -6 15 -3 13 9 11 12 -6 12 -8 0 -12 -4 -9 -9z"/>
<path d="M9392 1964 c-7 -8 -12 -20 -9 -27 2 -7 9 -2 16 11 15 28 11 36 -7 16z"/>
<path d="M4770 1850 c0 -5 5 -10 11 -10 5 0 7 5 4 10 -3 6 -8 10 -11 10 -2 0
-4 -4 -4 -10z"/>
<path d="M4850 1753 c0 -15 43 -62 52 -57 6 4 8 2 4 -4 -6 -10 38 -52 55 -52
14 0 10 20 -6 36 -8 9 -15 12 -15 8 0 -10 -46 39 -52 55 -4 13 -38 26 -38 14z"/>
<path d="M5010 1582 c0 -5 7 -13 16 -16 10 -4 14 -1 12 6 -5 15 -28 23 -28 10z"/>
<path d="M9020 1518 c-19 -17 -47 -43 -62 -56 -15 -14 -40 -25 -55 -26 -20 -1
-27 -6 -25 -17 3 -19 -77 -86 -87 -71 -7 12 -71 11 -71 -1 0 -5 7 -7 15 -4 8
4 17 2 20 -3 3 -5 13 -6 23 -3 14 5 14 3 -3 -17 -30 -36 93 52 194 138 107 91
107 92 96 92 -6 0 -26 -14 -45 -32z"/>
<path d="M5316 1353 c-12 -12 -6 -18 19 -18 14 0 25 1 25 2 0 7 -38 21 -44 16z"/>
<path d="M5310 1306 c0 -2 45 -33 99 -70 187 -124 448 -249 681 -327 136 -45
317 -92 333 -86 7 2 -7 7 -30 11 -47 8 -59 26 -18 26 14 0 25 5 25 10 0 6 -36
11 -85 11 -47 1 -88 2 -92 3 -5 1 -25 5 -45 9 -21 5 -38 12 -38 17 0 5 -6 7
-14 4 -7 -3 -16 2 -19 11 -5 11 -15 14 -34 10 -25 -5 -26 -5 -5 4 30 14 28 20
-8 19 -16 -1 -37 5 -47 13 -12 10 -15 10 -9 1 6 -9 1 -11 -18 -8 -14 3 -30 7
-36 11 -5 3 -18 8 -29 10 -10 2 -36 13 -57 24 l-39 20 49 -6 c32 -4 47 -3 43
4 -4 6 -39 12 -79 15 -47 3 -87 12 -113 26 -38 20 -33 29 13 23 6 -1 12 3 12
9 0 5 -22 10 -49 10 -63 0 -193 63 -184 89 4 14 3 14 -6 1 -7 -10 -14 -11 -18
-5 -5 6 -25 19 -46 30 -41 21 -63 43 -32 31 15 -5 16 -4 5 9 -9 11 -15 12 -20
5 -4 -7 -20 -2 -44 15 -36 24 -46 29 -46 21z m1027 -452 c-3 -3 -12 -4 -19 -1
-8 3 -5 6 6 6 11 1 17 -2 13 -5z"/>
<path d="M8715 1279 c-4 -6 -14 -8 -23 -4 -9 3 -13 3 -9 -1 4 -4 -1 -16 -10
-27 -13 -14 -6 -12 25 8 23 15 42 29 42 31 0 9 -19 3 -25 -7z"/>
<path d="M8624 1231 c11 -17 -38 -38 -81 -33 -27 2 -43 0 -43 -7 0 -6 11 -8
30 -4 48 9 34 -10 -30 -42 -41 -20 -77 -30 -113 -31 -66 -2 -72 -5 -23 -13
l38 -6 -58 -30 c-46 -23 -72 -29 -114 -28 -30 0 -40 -1 -22 -4 39 -5 41 -14 5
-30 -16 -6 -46 -19 -68 -29 -30 -12 -65 -16 -137 -15 -70 1 -98 -2 -98 -10 0
-8 19 -10 65 -7 36 3 63 2 60 -2 -7 -12 -113 -42 -125 -35 -5 3 -10 2 -10 -3
0 -5 -11 -12 -25 -14 -14 -3 -25 -1 -25 6 0 7 -3 7 -8 -1 -4 -7 -44 -13 -105
-14 -97 -3 -148 -16 -64 -17 75 -1 81 -2 72 -11 -11 -10 -141 -37 -225 -46
-70 -7 -934 -10 -946 -2 -5 3 -38 7 -74 10 -64 6 -64 5 25 -13 153 -32 301
-44 530 -43 400 1 709 60 1095 210 139 54 414 193 484 246 17 13 17 14 2 20
-9 4 -15 3 -12 -2z m-1591 -458 c-7 -2 -19 -2 -25 0 -7 3 -2 5 12 5 14 0 19
-2 13 -5z"/>
<path d="M5530 1188 c0 -4 16 -8 35 -8 19 0 35 5 35 10 0 6 -16 10 -35 8 -19
-1 -35 -6 -35 -10z"/>
<path d="M6100 950 c0 -5 14 -10 32 -10 35 0 30 12 -7 17 -14 2 -25 -1 -25 -7z"/>
</g>
</svg>
